<svg version="1" xmlns="http://www.w3.org/2000/svg" width="512" height="512" viewBox="0 0 384.000000 384.000000"><path d="M0 4c0 4.4 1.4 5.4 2.4 1.5.4-1.5 1.1-2.2 2-1.9.8.3 1.6-.3 1.9-1.5C6.7.3 6.4 0 3.4 0 .1 0 0 .1 0 4zM95.3 1.7c-1.1 2.9-3.7 5.4-6.9 6.8-1.7.7-4.6 3.1-6.4 5.4-1.8 2.3-3.9 4.1-4.6 4.1-.7 0-3 1.5-5.1 3.2-2.2 1.8-5.6 4.2-7.6 5.3-2.5 1.3-3.5 2.5-3.4 3.9.2 1.6-.5 2.2-3.2 2.6-4.7.7-6 3.1-3.2 5.9 2.3 2.3 2.2 2.7-1.5 7.8-1.3 1.7-2.4 4.2-2.4 5.4 0 1.2-1.4 4.6-3.1 7.6-1.7 3-2.8 5.7-2.5 6 .3.4.6.1.6-.5 0-.7.4-1.2 1-1.2 1.9 0-1.2 22.9-4.4 32.4-.9 2.5-1.3 5.3-.9 6.1.3.9 0 2.7-.7 4.1-1.1 1.9-1.1 3.2-.1 6.3.6 2.2 1.4 13.8 1.7 26.3.3 13.1 1.2 25.8 2.1 30.8 2.6 14.3 2.6 14.5.4 18.9-3.5 7.3-4.4 14.4-3.8 30.4.6 16 .1 19-4.2 24.7-4.8 6.3-6.9 13.3-2.2 7.4 2.3-3 2.6-2.3 1 2.5-.6 1.7-1.7 3.1-2.5 3.1s-1.4.5-1.4 1.1c0 .6-1.6 4.7-3.5 9-2 4.3-3.8 10.1-4.2 12.8l-.6 4.9-11.8 3.8L0 292.5V384h384l-.2-45.2-.3-45.2-8.6-2.8c-4.8-1.5-15.6-4.6-24-6.8-8.5-2.3-23.7-7.4-33.9-11.5-10.2-4-20.5-8-23-8.7l-4.5-1.5-.2-11.4c-.2-10.3-.6-12.6-3.8-21.9-2-5.8-4.5-12.3-5.5-14.5-1.1-2.2-2.1-6.6-2.4-9.7-.3-3.1-1.8-8.9-3.6-13-3.3-7.8-5.2-19.8-3.1-19.8.7 0 1.1-1.9 1-5.3-.2-4.7-.2-4.9-.8-1.7-.6 3-.8 3.2-1.4 1.4-.4-1.2-.3-3.3.3-4.8.5-1.5 1-3.9 1-5.4 0-1.5.9-5.4 2-8.6 2.2-6.4 2.7-20.7 1-28.1-1.7-7.6-3.1-12.8-3.7-13.9-.4-.6-.6-2.5-.4-4.2.6-7.3-3.2-33.9-5.1-35-.4-.3-.8-1.2-.8-2.1 0-1.6-5.9-15.3-7-16.3-.3-.3-2.2-2.8-4.2-5.5C248.6 36.8 220.5 9 218.9 9c-.5 0-.7-.5-.4-1 .3-.6-.1-1.3-.9-1.6-.9-.3-1.6-1.2-1.6-2 0-.7-.6-1.1-1.4-.8-.9.3-2-.3-2.8-1.5C210.5 0 210.2 0 153.2 0c-53 0-57.3.1-57.9 1.7zM152 39.6c0-.5 1.8.7 3.9 2.5 3.7 3.2 6.9 5.9 15 12.6 1.8 1.5 5.9 5.4 8.9 8.6 3.1 3.1 7.6 6.7 10 7.8 2.5 1.2 4.9 3.4 5.8 5.1 2.7 5.2 7.2 20.3 7.9 26.5.3 3.2 1.2 8.7 2 12.3.8 3.6 1.4 11 1.4 16.5s.4 13.1.9 17c.9 7.1.2 19.7-1.8 29-.6 2.7-1.3 6.8-1.6 9-.3 2.2-1.5 7.6-2.6 12-2.5 9.7-5.8 30.6-4.8 30 .4-.3 1.1-2.2 1.5-4.2 2.8-15.7 4.5-17.1 4.5-3.8 0 4.6.5 8.7 1 9 .6.3 1 1.5 1 2.5 0 2-6.6 6.2-10.1 6.5-.9.1-3.4 1.8-5.5 3.8-2.2 2-4.2 3.7-4.5 3.7-.3 0-1.8 1.1-3.2 2.4-2.3 2.1-2.4 2.5-.9 2.9 1.5.4 1.5.6-.3 1.1-1.2.4-3.1 3-4.5 6.2-1.4 2.9-2.8 5.4-3.2 5.4-.4 0-.9.8-1.3 1.8-.3 1.1-2.9 3.4-5.8 5.3-4.3 2.8-6.1 3.4-10.4 3.3-7 0-9.8-3.1-9.6-10.1.1-.7-1.8-1.8-4.1-2.3-7.1-1.9-9.9-3-11.8-4.7-2.2-2-2.5-5.5-.3-4.7 1.7.7 1.9-.9.5-3.6-.7-1.4-.6-2.3.5-3.4.8-.8 1.5-3.1 1.5-5.2 0-3.6 0-3.7-3.5-3.1-4 .7-5.5-1-5.5-6.2 0-3.4 3.7-10.4 5.1-9.5.5.3.6-.2.3-1-.8-2 1.3-5.6 3.2-5.6.9 0 1.8.9 2.1 2 .7 2.6 2.3 2.6 2.3-.1 0-1.4.5-1.9 1.4-1.6.8.3 1.7-.1 2-.9.5-1.2-.1-1.5-2.9-1.3-2.2.2-4.2-.3-5.5-1.4-1.9-1.6-2.5-1.6-7.2-.2-6.7 1.9-9.1 1.9-5.3-.2 1.6-.9 4.1-1.6 5.5-1.5 2.4 0 2.5-.3 2.6-5.1 0-2.9.4-7.7.8-10.8.7-5.2.6-5.8-1.6-8-1.4-1.3-3.2-3.7-4.2-5.2-1.6-2.7-1.6-3 .5-8.9 2.2-6.3 3.7-15.9 4.3-28.5.2-4 .7-7.6 1-8.1.2-.4-.1-2.6-.8-4.7-1.2-3.4-1.5-3.6-2.4-1.9-1 1.8-1.1 1.8-2.9.1-1.1-.9-2.4-1.7-2.9-1.7s-2.5-1.9-4.4-4.1c-1.9-2.3-4-4.8-4.8-5.5-2.4-2.5-2.4-8.2-.1-13.5 1.2-2.6 2.7-4.5 3.2-4.2.6.4.8-.2.5-1.5-.4-1.2-.2-2.2.3-2.2s.9-.9.9-1.9c0-1.1.5-2.3 1-2.6 1.9-1.2 4.1-7.8 3-8.9-.8-.8-1.2-.4-1.6 1.2-.7 2.6-2.2 2.9-3.1.6-.4-1 0-2 1-2.6.9-.4 1.4-1.4 1.1-2.2-.3-.7.2-1.8 1-2.5.9-.7 1.9-3.5 2.2-6.3.4-2.7 1.3-5.5 2-6.3.8-.7 1.4-1.8 1.4-2.4 0-.6 1.4-3.8 3.2-7.3 1.7-3.4 3.1-6.9 3.1-7.8-.1-3.7 7.1-7.8 15-8.6 2.8-.3 5.4-.7 5.6-1 .3-.3 1.1.3 1.8 1.2.7 1 1.3 1.4 1.3 1zm65.4 47.8c1.3-.5 3.6 3.5 3.6 6.1 0 2.1 5.2 14.9 6.2 15.3.4.2.8 1.1.7 2 0 1.1-.2 1.2-.6.4-.2-.6-.9-1-1.3-.7-.5.3-.1 2.5.9 4.8.9 2.3 2.3 6.1 3.1 8.4.7 2.3 1.6 4 2 3.8.4-.3.7.1.7.8-.1.6.3 4.3.7 8 .6 4.8.5 7.2-.3 8-.6.6-1.1 1.8-1.1 2.7 0 .9-.9 2.5-2 3.5-1.5 1.3-1.7 2.2-1 2.9.8.8 1.8.3 3.6-1.7 2-2.4 2.4-2.5 2.6-1 .4 5.4-2.5 18.5-4.2 19.1-.6.2-1 2.7-1.1 5.5 0 4.6-.1 4.9-1.1 2.7l-1.1-2.5-.8 3c-.4 1.6-1.7 7.7-2.9 13.5-1.1 5.8-2.9 12.1-3.9 14-1 1.9-2.4 6-3.1 9-.8 3-2.3 6.8-3.4 8.5-1.1 1.6-2 3.1-2.1 3.3-.1.1-1-.1-2-.4-1.6-.6-1.7-1.6-1.1-8.1.7-8.7 2.1-12.2 7.6-18.3 2.2-2.5 4.5-6.3 5.1-8.5.7-2.3 1.2-13.4 1.2-26 .1-21.8-.7-30.7-4.8-57.5-1.6-9.9-2.7-23.9-1.8-21.3.2.7 1 1 1.7.7zm-5.7 35.6c.3 10.1.1 15-.5 14.1-.6-.8-1.3-4.6-1.7-8.6-.3-3.9-.8-8.5-1-10.1-.2-1.6-.7-7-1-11.9l-.6-9 2.1 5c1.8 4.2 2.3 7.6 2.7 20.5zm38.2 6.3c1.2 4.9 2.1 12.3 2.1 16.4 0 6.4-.4 8.3-2.6 12-3.3 5.6-4.9 4.6-5.8-3.8-.7-5.5-.5-6.5 1.8-9.8 3.4-4.8 3.3-7.6-.4-11.8-3.4-3.8-3.7-4.8-1.5-5.7.9-.3 1.5-1.8 1.5-3.4 0-3.1.9-4.7 2.1-3.5.4.5 1.7 4.8 2.8 9.6zM100 123.8c3.4.7 3.2.9-4.3 2.5-4.3.9-9.4 1.7-11.5 1.7h-3.7l3.3-3c2.9-2.5 3.9-2.8 8-2.4 2.6.2 6.3.8 8.2 1.2zm120.7 27.4c-.3.7-.5.2-.5-1.2s.2-1.9.5-1.3c.2.7.2 1.9 0 2.5zm-5.5 14c0 1.3.2 6.6.4 11.8.3 11-1.5 16.3-7 20.5-2 1.5-3.8 4.1-4.5 6.6-1.5 5-2.4 4.7-1-.4.5-2 .9-3.8.8-3.9-.1-.2.7-2.1 1.9-4.4 1.1-2.2 2.4-6.9 2.7-10.5 1-9.1 2.1-14.8 4-20.7.7-2 2.5-1.4 2.7 1zm13.5 29.6c-.9 11.8-3.2 21.2-5.1 21.2-.7 0-1.2-1.7-1.2-4.5-.1-2.5.2-4.5.6-4.5.5 0 1-1.7 1.3-3.8 1.1-8.5 4.2-22.1 4.7-20.7.3.9.2 6.4-.3 12.3zm-109.1-11.1c2 2.7 1.7 3.5-1.3 3.1-2-.2-2.9-.9-3.1-2.6-.4-2.7 2.4-3 4.4-.5zM74.8 193c0 2-.2 2.6-.5 1.5s-1-2.3-1.5-2.6c-.6-.4-.6-2.2-.2-4.5l.8-3.9.7 3c.4 1.6.7 4.6.7 6.5zm187.9-1.8c-.3.8-.6.5-.6-.6-.1-1.1.2-1.7.5-1.3.3.3.4 1.2.1 1.9zm-23.6 1.1c-1 .9-1.1.8-.5-.6.3-1 .9-1.5 1.2-1.2.3.3 0 1.1-.7 1.8zm-8.4 6.4c-.3 1-.5.4-.5-1.2 0-1.7.2-2.4.5-1.8.2.7.2 2.1 0 3zM53 200.8c0 2 .5 5.7 1.1 8.1.8 3.7.7 4.8-1.1 7.8-1.1 1.9-2.3 6.1-2.7 9.3-.4 4-1.3 6.7-2.9 8.6l-2.4 2.9.6-6c.6-7.9.6-9.2 0-14.5-.8-5.8 1-14.6 3.5-17.1 1-1 1.6-1.9 1.3-1.9-.3 0-.2-.5.1-1 1.2-1.9 2.5.1 2.5 3.8zm210.7 5.4c-.3.7-.5.2-.5-1.2s.2-1.9.5-1.3c.2.7.2 1.9 0 2.5zM114 212.5c0 .8-.9 1.5-2 1.5s-2 .7-2 1.5-.4 1.5-1 1.5c-1.3 0-1.3-1.6 0-4.1 1.3-2.2 5-2.6 5-.4zm-51 14c0 1.8-6.7 9.1-7.6 8.3-.9-1 5.6-10.9 6.7-10.2.5.3.9 1.1.9 1.9zm215.6 16.2c3.7 8.2-.4 19.1-5.4 14.1-2.3-2.3-.9-16 2.2-19.7.9-1.2 1.2-1.1 1.4.5.2 1 1 3.3 1.8 5.1zm-222-1.1c-.4.9-.9 1.5-1.1 1.2-.3-.3-.3-1.3.1-2.2.4-.9.9-1.5 1.1-1.2.3.3.3 1.3-.1 2.2zm-6.5 7.1c-1.7 3.6-3.9 7.2-4.9 7.9-.9.7-1.7 2.3-1.8 3.6-.4 8.6-1.7 18.4-2.6 19.5-1.6 1.9-5.2 1.6-7.3-.7-1-1.1-1.3-2-.7-2 .7 0 1.2-1.4 1.2-3 0-1.7.8-4.8 1.8-6.8 3.7-7.4 7.1-13.2 8.4-14.6.8-.7 2.9-3.9 4.8-7 4.5-7.3 5.1-5.5 1.1 3.1z"/><path d="M176.2 109.2c-.7.8-4.4 1.4-10.2 1.6-7.6.2-10.2.7-14.6 2.9-3 1.4-5.4 3-5.4 3.5 0 1.2 7.8 1 8.5-.2.3-.6 1.3-1 2.1-1s1.3.4 1 .8c-.9 1.5 13-.7 17.8-2.9 4.7-2 4.9-2.2 3-3.7-1.6-1.2-1.6-1.4-.1-.8 4.4 1.6 5 1.6 2.7.2-3.1-1.9-3.5-1.9-4.8-.4zM167 123.7c-7 .4-9.5 1-11.2 2.6-.7.7-2.5 2-4 3-1.6 1-2.8 2.2-2.8 2.7s2.1-.4 4.7-2c6-3.9 7.8-3.8 3.3 0-1.9 1.6-3.8 3-4.2 3-1.8 0-.6 1.6 2 2.7 3.5 1.5 10.5 1.1 12.8-.8 1.4-1.1 1.8-1.1 2.2-.1.3 1 .7 1 2 0 .8-.7 1.8-1.2 2.1-1.2.3.1.5-.2.4-.7-.2-.5.5-.9 1.5-.9 1.4 0 1.4-.2.3-.9-.9-.6-1.1-1.6-.7-2.7.7-1.8.8-1.8 2.2 0 .8 1.1 1.4 1.4 1.4.8 0-1.7 3.5-1.5 5 .3 1.4 1.7 3 2 3 .6 0-1.1-11.8-7.2-13.4-6.9-.6.1-3.6.3-6.6.5zm.7 8.9c-.7.7-6.7-.8-6.7-1.7 0-.5.7-.9 1.5-.9s1.5-.5 1.5-1c0-.6.9-.1 2.1 1.1 1.1 1.1 1.9 2.3 1.6 2.5zM132.8 201.6c-.6 4.6.5 6.5 2.1 3.6.7-1.4.8-2.3.1-2.7-.6-.4-.8-1-.6-1.4.3-.4.1-1.3-.3-2-.6-.9-1 0-1.3 2.5zM245.2 155.5c0 1.6.2 2.2.5 1.2.2-.9.2-2.3 0-3-.3-.6-.5.1-.5 1.8z"/></svg>